<?xml version="1.0" encoding="UTF-8" standalone="no"?>
<svg
   xmlns:dc="http://purl.org/dc/elements/1.1/"
   xmlns:cc="http://creativecommons.org/ns#"
   xmlns:rdf="http://www.w3.org/1999/02/22-rdf-syntax-ns#"
   xmlns:svg="http://www.w3.org/2000/svg"
   xmlns="http://www.w3.org/2000/svg"
   viewBox="0 0 1280 746.66669"
   height="746.66669"
   width="1280"
   xml:space="preserve"
   id="svg2"
   version="1.1"><metadata
     id="metadata8"><rdf:RDF><cc:Work
         rdf:about=""><dc:format>image/svg+xml</dc:format><dc:type
           rdf:resource="http://purl.org/dc/dcmitype/StillImage" /></cc:Work></rdf:RDF></metadata><defs
     id="defs6"><clipPath
       id="clipPath18"
       clipPathUnits="userSpaceOnUse"><path
         id="path16"
         d="M 0,560 H 960 V 0 H 0 Z" /></clipPath></defs><g
     transform="matrix(1.3333333,0,0,-1.3333333,0,746.66667)"
     id="g10"><g
       id="g12"><g
         clip-path="url(#clipPath18)"
         id="g14"><g
           transform="translate(372.3262,270.5566)"
           id="g20"><path
             id="path22"
             style="fill:#1f294f;fill-opacity:1;fill-rule:nonzero;stroke:none"
             d="m 0,0 c 0,-9.442 2.624,-17.05 7.869,-22.819 5.244,-5.77 13.115,-8.658 23.607,-8.658 6.819,0 12.892,1.706 18.229,5.117 5.332,3.409 9.836,8 13.506,13.771 3.673,5.77 6.469,12.367 8.393,19.801 1.923,7.434 2.888,15.17 2.888,23.215 0,11.016 -2.45,19.41 -7.344,25.179 -4.899,5.77 -11.278,8.657 -19.147,8.657 -5.423,0 -10.539,-1.007 -15.346,-3.017 C 27.843,59.234 23.476,56.437 19.542,52.854 15.605,49.268 12.283,45.069 9.574,40.263 6.861,35.45 4.894,30.253 3.673,24.657 3.673,24.657 0,8.841 0,0 m 12.852,66.623 c 5.419,6.819 11.89,12.238 19.41,16.265 7.515,4.018 16.001,6.03 25.441,6.03 8.396,0 15.608,-1.532 21.64,-4.591 6.033,-3.058 11.017,-7.257 14.951,-12.589 3.935,-5.337 6.822,-11.586 8.657,-18.756 1.836,-7.171 2.753,-14.776 2.753,-22.819 0,-11.716 -1.703,-22.777 -5.113,-33.177 -3.412,-10.408 -8.176,-19.542 -14.297,-27.413 -6.123,-7.866 -13.377,-14.076 -21.77,-18.622 -8.393,-4.546 -17.664,-6.821 -27.803,-6.821 -9.967,0 -18.537,1.838 -25.704,5.511 -7.172,3.673 -13.292,9.704 -18.361,18.097 l -14.951,-70.294 H -52.197 L -12.591,84.72 h 29.116 z" /></g><g
           transform="translate(582.7617,283.6709)"
           id="g24"><path
             id="path26"
             style="fill:#1f294f;fill-opacity:1;fill-rule:nonzero;stroke:none"
             d="m 0,0 -20.198,-1.05 c -8.743,-0.521 -16.087,-1.442 -22.031,-2.75 -5.949,-1.313 -10.668,-3.108 -14.166,-5.379 -3.499,-2.275 -5.99,-5.028 -7.475,-8.261 -1.487,-3.239 -2.228,-6.952 -2.228,-11.149 0,-4.549 1.572,-8.438 4.72,-11.671 3.149,-3.24 7.955,-4.851 14.426,-4.851 5.419,0 10.58,0.825 15.476,2.491 4.894,1.659 9.311,3.932 13.247,6.819 3.932,2.885 7.252,6.379 9.965,10.489 2.711,4.109 4.591,8.697 5.641,13.773 z m -56.395,-68.195 c -12.063,0 -21.682,3.193 -28.849,9.575 -7.173,6.379 -10.756,15.604 -10.756,27.671 0,9.788 2.099,17.836 6.294,24.13 4.198,6.297 9.794,11.28 16.786,14.954 6.993,3.67 15.038,6.292 24.133,7.865 9.092,1.574 18.532,2.534 28.328,2.888 l 24.918,1.049 0.786,4.193 c 0.525,3.151 0.788,6.123 0.788,8.921 0,6.294 -1.838,11.188 -5.508,14.687 -3.673,3.499 -9.706,5.247 -18.099,5.247 -9.443,0 -16.615,-1.271 -21.509,-3.802 -4.896,-2.539 -8.654,-7.476 -11.278,-14.822 l -27.015,2.887 c 4.369,13.989 11.711,23.909 22.031,29.771 10.316,5.856 23.956,8.786 40.919,8.786 15.908,0 28.065,-3.631 36.457,-10.885 8.394,-7.26 12.679,-17.443 12.855,-30.559 0,-2.45 -0.176,-4.984 -0.525,-7.607 -0.353,-2.624 -0.788,-5.335 -1.313,-8.13 L 15.213,-64.785 h -28.328 l 3.673,17.836 c -6.294,-6.297 -12.942,-11.41 -19.935,-15.345 -6.995,-3.934 -16.001,-5.901 -27.018,-5.901" /></g><g
           transform="translate(635.0459,355.2773)"
           id="g28"><path
             id="path30"
             style="fill:#1f294f;fill-opacity:1;fill-rule:nonzero;stroke:none"
             d="M 0,0 H 33.05 L 50.361,-98.358 104.918,0 h 34.098 L 51.147,-144.785 c -4.195,-6.99 -8.089,-13.155 -11.67,-18.492 -3.586,-5.332 -7.347,-9.746 -11.279,-13.245 -3.936,-3.495 -8.263,-6.165 -12.986,-8 -4.72,-1.838 -10.318,-2.756 -16.786,-2.756 -4.372,0 -8.352,0.395 -11.935,1.181 -3.584,0.785 -7.125,1.88 -10.621,3.278 l 7.868,22.558 c 1.922,-0.699 4.106,-1.35 6.556,-1.968 2.446,-0.611 5.07,-0.919 7.87,-0.919 5.245,0 9.482,1.445 12.721,4.332 3.233,2.882 6.861,7.737 10.885,14.555 l 7.869,13.375 z" /></g><g
           transform="translate(281.4136,262.4258)"
           id="g32"><path
             id="path34"
             style="fill:#1f294f;fill-opacity:1;fill-rule:nonzero;stroke:none"
             d="m 0,0 c -0.351,-1.751 -0.654,-3.278 -0.917,-4.589 -0.264,-1.312 -0.394,-2.668 -0.394,-4.065 0,-5.076 1.267,-8.571 3.803,-10.492 2.534,-1.928 5.988,-2.888 10.361,-2.888 3.148,0 6.075,0.222 8.788,0.659 2.708,0.433 5.2,1.002 7.476,1.701 l 4.458,-22.292 c -8.393,-2.796 -17.574,-4.198 -27.542,-4.198 -12.066,0 -21.334,2.708 -27.803,8.13 -6.471,5.419 -9.704,13.64 -9.704,24.657 0,4.894 0.61,9.704 1.836,14.426 l 14.426,68.197 h -65.201 l 4.984,23.606 h 65.201 l 7.868,36.723 H 27.542 L 19.674,92.852 H 56.241 L 51.257,69.246 H 14.69 Z" /></g></g></g></g></svg>